<svg width="188" height="108" viewBox="0 0 188 108" fill="none" xmlns="http://www.w3.org/2000/svg">
<path d="M40.2239 16.7703C41.7038 14.1847 43.9678 12.5129 47.6365 12.6101C51.1709 12.703 53.486 14.3057 55.0867 16.8934C55.3472 16.5499 55.5137 16.3599 55.6426 16.1547C57.2514 13.608 60.0203 12.271 63.305 12.4611C66.5117 12.6468 69.5116 14.5563 70.4973 17.1245C70.7954 17.9021 70.9861 18.738 70.9968 19.548C71.0398 23.5419 70.97 27.5379 71.0156 31.5339C71.0344 33.0739 71.2036 34.614 71.3943 36.1476C71.5877 37.7028 71.1875 38.1262 69.2995 38.1305C67.688 38.1327 66.0766 38.1283 64.4652 38.1327C63.5601 38.1348 63.176 37.7957 63.2566 37.0548C63.3667 36.0569 63.4715 35.0547 63.4768 34.0546C63.4983 29.7713 63.4822 25.488 63.4795 21.2047C63.4795 19.5718 62.7517 18.7164 61.0731 18.3881C58.8225 17.9475 56.9264 18.4875 56.1959 19.9714C55.7635 20.8505 55.5432 21.8506 55.5379 22.7988C55.5083 27.4407 55.554 32.0847 55.6453 36.7265C55.6668 37.7827 55.3203 38.2428 53.9157 38.1586C52.401 38.07 50.8728 38.1024 49.3527 38.1435C48.2381 38.1737 47.8863 37.8303 47.9266 36.9274C48.1414 32.2575 48.3106 27.5854 48.4288 22.9155C48.4503 22.1055 48.2488 21.2674 47.9695 20.4855C47.4028 18.9022 46.0009 18.1483 43.9571 18.1894C42.1174 18.2261 40.7691 19.0339 40.4495 20.6604C40.1514 22.1724 40.1568 23.7341 40.1568 25.272C40.1568 29.1946 40.2186 33.115 40.2857 37.0375C40.2991 37.8756 39.8909 38.1845 38.8462 38.1499C37.2831 38.0981 35.7119 38.1003 34.1488 38.1564C33.037 38.1953 32.6475 37.8519 32.6529 36.9684C32.6798 31.6786 32.6878 26.3866 32.6502 21.0967C32.6341 18.7618 32.5052 16.429 32.4004 14.094C32.3682 13.405 32.7496 13.0788 33.5714 13.0745C35.3171 13.0659 37.0628 13.0723 38.8086 13.0767C39.617 13.0788 39.8828 13.4309 39.8533 14.0508C39.813 14.8997 39.8426 15.7529 39.8426 16.6039C39.9661 16.6536 40.095 16.7119 40.2239 16.7703Z" fill="black"/>
<path d="M94.2148 35.2167C91.8917 36.9684 89.2677 38.1327 86.1496 38.4718C81.0951 39.0183 77.0316 36.99 76.4408 32.5879C75.7828 27.6891 78.2536 24.7083 84.3287 23.4857C86.958 22.9565 89.684 22.7254 92.3805 22.4359C93.1781 22.3495 93.3527 22.086 93.3071 21.5374C93.2775 21.1788 93.2963 20.8181 93.2936 20.4574C93.2748 18.4162 92.3939 17.4636 90.2158 17.1267C87.6509 16.7314 85.4218 17.4939 84.7342 19.2543C84.2723 20.4423 83.6519 20.7943 82.1586 20.4984C80.9554 20.2608 79.6744 20.2889 78.4336 20.1593C77.1095 20.0211 76.8839 19.6431 77.3217 18.6322C78.96 14.8414 82.446 12.8628 87.232 12.5215C89.7189 12.3444 92.3429 12.5215 94.7815 12.9687C98.7644 13.6987 100.677 15.8242 100.814 19.1182C100.945 22.2804 101.004 25.4448 101.066 28.6092C101.101 30.415 101.584 32.1214 102.927 33.5794C103.792 34.519 103.548 35.3052 102.602 35.9424C101.375 36.7697 100.046 37.5149 98.6704 38.1759C98.3535 38.3292 97.5263 38.1262 97.1933 37.8691C96.17 37.0786 95.2757 36.18 94.2148 35.2167ZM93.2936 28.134C93.299 25.6068 93.299 25.6047 90.3313 25.866C89.8881 25.9049 89.445 25.9654 89.0099 26.0453C86.1174 26.5767 84.3287 28.4299 84.3932 30.8081C84.4308 32.2251 85.1505 33.3634 86.7646 33.9379C88.3895 34.5168 89.8237 33.9725 91.0484 33.0675C92.9096 31.6915 93.4118 29.9139 93.2936 28.134Z" fill="black"/>
<path d="M18.8645 35.2318C16.4688 37.0289 13.7858 38.2147 10.6086 38.4826C7.36959 38.7569 4.36965 38.2709 2.52994 35.8474C1.89074 35.005 1.60874 33.9271 1.43685 32.9271C1.25422 31.8665 1.42611 30.7714 1.39119 29.6914C1.32942 27.6631 2.54068 26.1749 4.50394 25.0603C7.18159 23.5375 10.3266 23.1271 13.485 22.7902C14.7231 22.6584 15.9666 22.5569 17.1966 22.3884C17.4679 22.3517 17.9083 22.0817 17.903 21.9262C17.8734 20.9283 17.9432 19.8828 17.5968 18.9454C17.0892 17.5695 15.3596 16.6687 13.9791 16.7854C11.5781 16.9884 9.68736 18.0555 9.33554 19.5372C9.11799 20.4509 8.59696 20.7317 7.47434 20.5783C6.06702 20.3861 4.63285 20.317 3.21479 20.1701C1.65708 20.0081 1.48251 19.6431 2.05994 18.4335C4.22731 13.8953 8.73125 12.4351 14.2934 12.3703C16.8663 12.3401 19.3667 12.6598 21.6656 13.6771C23.7739 14.6103 25.1195 16.0078 25.2753 17.9431C25.5035 20.7749 25.6513 23.6175 25.6513 26.4557C25.6513 29.1168 25.7667 31.6937 27.8455 33.9617C28.5223 34.7004 28.0093 35.4737 27.2493 35.9705C26.0031 36.7827 24.679 37.53 23.3066 38.1996C23.0085 38.3465 22.227 38.1737 21.9262 37.9383C20.8787 37.1131 19.9414 36.1995 18.8645 35.2318ZM17.9271 28.3111C17.9513 25.5571 17.8976 25.5204 14.7231 25.8963C14.3686 25.9373 14.0141 25.9783 13.6676 26.0431C11.0517 26.527 9.21199 28.2463 9.02668 30.3783C8.89239 31.9097 9.91565 33.4498 11.4089 33.966C12.7625 34.4347 14.5431 34.0157 15.9075 32.9184C17.5807 31.5684 18.0346 29.8923 17.9271 28.3111Z" fill="black"/>
<path d="M170.65 17.1353C170.962 16.6709 171.244 16.1892 171.593 15.7443C173.481 13.3294 176.94 12.1155 180.109 12.7332C183.456 13.3855 185.98 15.6103 186.133 18.6495C186.399 23.9285 186.348 29.2205 186.421 34.506C186.431 35.37 186.343 36.234 186.389 37.0959C186.429 37.9102 185.988 38.1715 185.027 38.1478C183.372 38.1067 181.715 38.1089 180.058 38.137C179.145 38.1521 178.772 37.8778 178.788 37.1261C178.898 32.5577 178.992 27.9915 179.048 23.4231C179.059 22.4619 179.006 21.4747 178.758 20.5395C178.372 19.075 177.134 18.2931 175.382 18.1937C173.427 18.0835 171.757 18.7704 171.252 20.2068C170.809 21.4618 170.613 22.8118 170.594 24.1207C170.54 28.4386 170.597 32.7586 170.661 37.0786C170.672 37.8864 170.315 38.1651 169.337 38.1435C167.594 38.1046 165.845 38.1283 164.1 38.1391C163.216 38.1456 162.827 37.8691 162.837 37.1045C162.945 29.5899 163.02 22.0731 163.098 14.5563C163.114 13.0659 163.103 13.0659 164.97 13.0723C166.267 13.0767 167.567 13.0961 168.864 13.068C169.823 13.0464 170.261 13.338 170.215 14.1459C170.161 15.1351 170.202 16.1266 170.202 17.118C170.352 17.1223 170.5 17.1288 170.65 17.1353Z" fill="black"/>
<path d="M132.709 26.6177C132.75 22.423 133.41 19.3882 135.645 16.7465C140.404 11.1218 150.669 11.111 155.447 16.7292C159.599 21.613 159.717 30.402 154.668 35.2966C149.484 40.3229 139.115 39.5798 135.185 33.8537C133.413 31.2703 132.704 28.4882 132.709 26.6177ZM150.507 25.7645C150.47 25.7623 150.43 25.7623 150.392 25.7602C150.392 25.1489 150.465 24.5333 150.379 23.9306C150.166 22.4424 150.067 20.9174 149.573 19.4854C149.103 18.1332 147.824 17.2649 145.939 17.159C144.054 17.0532 142.966 18.0058 142.386 19.1959C141.712 20.5805 141.212 22.0666 140.997 23.5418C140.557 26.5334 140.785 29.5078 142.571 32.2531C143.208 33.2294 144.094 34.0502 145.654 34.0502C147.352 34.0481 148.585 33.3526 149.296 32.1905C149.777 31.4021 150.07 30.5035 150.215 29.6287C150.422 28.35 150.419 27.0518 150.507 25.7645Z" fill="black"/>
<path d="M27.3245 40.9515C28.2859 41.3036 29.0003 41.5066 29.6422 41.809C36.4854 45.0188 43.8094 47.2781 51.4234 48.9543C59.827 50.8054 68.3971 51.7493 77.1069 51.7342C89.2946 51.7148 101.058 49.8291 112.427 46.304C113.329 46.0232 114.296 45.8374 115.255 45.7402C115.636 45.7013 116.074 46.0232 116.488 46.1787C116.278 46.5092 116.176 46.9671 115.843 47.1464C113.649 48.3171 111.476 49.5396 109.158 50.5332C103.446 52.9827 97.3357 54.5962 91.0054 55.6222C84.8149 56.6266 78.5572 56.9657 72.2216 56.7648C63.9952 56.5056 56.0938 55.134 48.555 52.5658C41.5829 50.192 35.0002 47.2025 29.0514 43.388C28.1973 42.8436 27.3809 42.2237 27.3245 40.9515Z" fill="#FFB800"/>
<path d="M119.428 17.8438C115.977 17.8438 112.991 17.846 110.004 17.8438C108.226 17.8416 107.799 17.4636 107.979 16.038C108.078 15.254 108.248 14.4764 108.326 13.6901C108.403 12.8974 109.121 13.0443 109.714 13.0443C115.083 13.04 120.452 13.0464 125.823 13.0508C126.583 13.0508 127.346 13.068 128.106 13.0356C128.949 13.0011 129.151 13.3445 129.188 13.9558C129.322 16.118 128.632 17.9842 126.938 19.7489C124.152 22.6476 121.628 25.7084 118.999 28.7043C118.674 29.0758 118.381 29.4646 117.965 29.9787C119.751 30.1256 121.365 30.1364 122.901 30.4193C124.751 30.7606 126.591 31.2358 128.323 31.8557C128.933 32.0739 129.465 32.8666 129.575 33.452C129.774 34.5039 129.704 35.6033 129.607 36.6747C129.502 37.8065 129.258 37.826 127.904 37.4048C125.96 36.8021 124.01 36.1541 121.99 35.7869C118.461 35.1454 114.983 35.5407 111.61 36.571C110.651 36.8648 109.668 37.1088 108.704 37.394C107.74 37.6791 107.246 37.4609 107.254 36.5991C107.265 35.3398 107.138 34.0719 107.292 32.8234C107.38 32.1106 107.762 31.3481 108.269 30.752C111.473 26.9849 114.75 23.2568 118 19.5135C118.394 19.0556 118.786 18.5933 119.428 17.8438Z" fill="black"/>
<path d="M113.101 80.9136C113.101 86.4518 113.077 91.9901 113.125 97.5283C113.133 98.4247 112.762 98.9042 111.747 99.2347C107.939 100.477 104.004 100.535 100.021 100.081C94.6097 99.4658 90.753 97.1525 88.8139 93.0182C85.7253 86.4302 89.3295 77.3971 98.6651 75.0297C101.571 74.2932 104.501 74.3925 107.412 74.8051C108.777 74.9995 108.965 74.5373 108.965 73.6884C108.965 70.4873 109.021 67.2862 108.946 64.0872C108.922 63.0569 109.362 62.7998 110.565 62.8322C113.439 62.9078 113.074 62.5752 113.077 64.8367C113.087 70.1957 113.079 75.5546 113.079 80.9136C113.09 80.9136 113.095 80.9136 113.101 80.9136ZM108.976 87.7089C108.976 85.0457 108.914 82.3824 109.002 79.7213C109.043 78.5138 108.446 77.7989 107.026 77.747C104.987 77.6714 102.874 77.5116 100.91 77.8421C96.0197 78.6693 91.9508 82.8619 92.0314 87.9357C92.1146 93.0441 97.5801 99.1807 106.593 97.5693C108.516 97.2259 108.976 96.8242 108.976 95.2646C108.976 92.7482 108.976 90.2275 108.976 87.7089Z" fill="#FFB800"/>
<path d="M39.6868 75.3516C35.6368 78.3519 31.8499 81.1447 28.0792 83.9549C26.3603 85.2358 26.4086 85.2379 27.9449 86.6959C32.2796 90.8129 36.5821 94.9472 40.8927 99.0792C41.0807 99.2585 41.2042 99.481 41.4594 99.8179C39.7728 99.8179 38.258 99.8806 36.7621 99.7812C36.2921 99.751 35.7818 99.3384 35.438 99.0036C31.7264 95.4072 28.0389 91.7914 24.3568 88.1755C23.9163 87.7435 23.5403 87.2662 23.1348 86.8104C22.9468 86.9033 22.7614 86.9983 22.5734 87.0912C22.4982 87.966 22.3693 88.8408 22.3613 89.7156C22.3344 92.7029 22.321 95.688 22.372 98.6753C22.3881 99.5674 22.0229 99.8763 20.9056 99.8482C17.7714 99.7704 18.1957 100.114 18.193 97.6515C18.1769 86.4605 18.2065 75.2695 18.1581 64.0807C18.1528 63.0353 18.5932 62.802 19.783 62.8409C22.56 62.9295 22.3478 62.5191 22.3532 64.9491C22.3693 70.8135 22.364 76.68 22.3801 82.5444C22.3828 82.9894 22.4982 83.4365 22.5976 84.1277C23.2153 83.7519 23.6182 83.5553 23.9512 83.2983C27.021 80.9352 30.0988 78.5787 33.1229 76.1789C33.8857 75.5741 34.6672 75.289 35.7334 75.343C36.934 75.397 38.1398 75.3516 39.6868 75.3516Z" fill="#FFB800"/>
<path d="M155.514 95.8392C155.957 96.6535 156.327 97.3296 156.687 97.9906C150.596 101.792 140.981 101.762 135.908 95.5908C131.844 90.6487 132.105 82.7388 136.585 78.1013C139.421 75.1658 143.278 74.1917 147.674 74.7749C151.77 75.317 154.541 77.2762 156.083 80.4427C157.168 82.6697 156.932 84.9636 157.071 87.2467C157.12 88.0222 156.397 87.9552 155.766 87.9552C151.472 87.9552 147.177 87.953 142.883 87.953C141.631 87.953 140.377 87.9401 139.125 87.9552C137.793 87.9703 137.433 88.2965 137.554 89.3225C138.33 95.9407 145.85 99.4226 153.405 96.6578C154.055 96.4202 154.689 96.161 155.514 95.8392ZM145.133 85.1083C145.133 85.1062 145.133 85.1018 145.133 85.0997C147.328 85.0997 149.519 85.0759 151.713 85.1105C152.755 85.1256 153.161 84.7087 152.938 83.9808C152.586 82.836 152.269 81.6502 151.625 80.6069C150.661 79.0474 149.154 77.8831 146.874 77.5678C141.177 76.7815 138.038 80.5399 137.75 83.9981C137.68 84.821 137.984 85.1623 139.093 85.1256C141.105 85.0586 143.119 85.1083 145.133 85.1083Z" fill="#FFB800"/>
<path d="M57.9228 87.4843C57.9228 83.8123 57.9201 80.1425 57.9255 76.4705C57.9255 75.9348 57.8208 75.2393 58.836 75.3386C59.733 75.4272 61.0248 74.7662 61.3552 76.2156C61.8654 78.449 61.9138 78.3907 64.2826 77.1444C67.3577 75.5287 70.637 74.4206 74.4507 74.6215C77.6682 74.7922 79.8006 76.181 80.7353 78.4944C81.4524 80.2721 81.78 82.2118 81.8391 84.0888C81.9895 88.9445 81.8713 93.8045 81.9197 98.6645C81.9277 99.5566 81.5893 99.8611 80.4694 99.8352C77.3647 99.7639 77.8374 100.097 77.8266 97.7162C77.8078 93.4373 77.8508 89.1583 77.7917 84.8815C77.7783 83.7778 77.5903 82.6589 77.3056 81.5767C76.5026 78.5225 73.5349 77.0386 69.8877 78.125C67.4947 78.8378 65.322 80.0345 63.0767 81.0518C62.2253 81.4363 61.9917 82.0778 61.997 82.8814C62.04 88.0999 61.9944 93.3185 62.0454 98.537C62.0534 99.4961 61.7849 99.8892 60.4877 99.8417C57.6462 99.738 57.9336 100.148 57.9201 97.74C57.904 94.3207 57.9148 90.9014 57.9148 87.4822C57.9174 87.4843 57.9201 87.4843 57.9228 87.4843Z" fill="#FFB800"/>
<path d="M120.803 80.2051C120.803 74.8483 120.83 69.4894 120.779 64.1326C120.771 63.1714 121.053 62.7891 122.34 62.8279C125.299 62.9165 124.899 62.6033 124.899 64.9167C124.907 74.4099 124.902 83.9031 124.907 93.3963C124.907 94.0421 124.896 94.6966 125.023 95.3316C125.315 96.8069 126.169 97.4679 128.015 97.3555C129.524 97.2648 129.336 98.0446 129.58 98.7466C129.878 99.6063 129.255 99.9281 128.466 100.004C127.064 100.14 125.603 100.334 124.238 100.151C122.103 99.8655 120.82 98.2692 120.814 96.2777C120.798 90.9209 120.809 85.5619 120.809 80.2051C120.809 80.2051 120.806 80.2051 120.803 80.2051Z" fill="#FFB800"/>
<path d="M45.8639 87.601C45.8639 83.929 45.8961 80.257 45.8424 76.5872C45.829 75.6713 46.1083 75.2998 47.333 75.3322C50.4001 75.4121 49.965 75.1162 49.9731 77.4879C49.9999 84.4344 49.9838 91.3832 49.9784 98.3297C49.9784 99.8223 49.965 99.8223 48.1548 99.8244C47.8406 99.8244 47.5237 99.7964 47.2148 99.8288C46.1405 99.9454 45.8317 99.5717 45.8424 98.725C45.8935 95.0163 45.8666 91.3076 45.8639 87.601Z" fill="#FFB800"/>
<path d="M118.059 53.3412C118.666 52.0128 119.332 50.7017 119.863 49.3539C120.401 47.9909 120.881 46.6064 121.244 45.2088C121.641 43.6817 120.833 42.6125 118.883 42.4073C116.823 42.1913 114.707 42.2388 112.62 42.2799C111.035 42.3101 109.456 42.5132 107.874 42.6384C107.802 42.5348 107.727 42.4332 107.654 42.3296C108.156 41.9926 108.605 41.5822 109.169 41.3338C111.89 40.1372 114.822 39.5712 117.919 39.6814C119.823 39.7484 121.733 39.8866 123.621 40.0918C124.679 40.2063 125.289 40.8413 125.197 41.7053C125.066 42.9495 124.939 44.2152 124.558 45.4184C123.849 47.654 122.796 49.801 120.965 51.6132C120.231 52.339 119.265 52.9114 118.402 53.5529C118.287 53.4816 118.174 53.4125 118.059 53.3412Z" fill="#FFB800"/>
<path d="M47.9453 69.5671C46.4172 69.5844 44.8138 68.3186 44.8111 67.0896C44.8057 65.8368 46.2265 64.6272 47.7439 64.5905C49.4332 64.5494 50.9721 65.7072 50.9963 67.0399C51.0205 68.3165 49.5326 69.5498 47.9453 69.5671Z" fill="#FFB800"/>
</svg>
