<svg width="487" height="349" viewBox="0 0 487 349" fill="none" xmlns="http://www.w3.org/2000/svg">
<path d="M267.314 5.79472C268.952 2.26118 272.492 0 276.387 0H294.374C298.391 0 302.017 2.40288 303.583 6.10141L412.769 264.005C415.047 269.388 412.244 275.569 406.693 277.401L273.378 321.386C271.193 322.106 268.826 322.052 266.677 321.231L153.012 277.824C147.598 275.756 145.07 269.534 147.507 264.276L267.314 5.79472Z" fill="#E65F25"/>
<path d="M135.905 270.129C136.614 269.564 137.493 269.256 138.4 269.256L423.348 269.256C423.78 269.256 424.208 269.325 424.617 269.462L473.439 285.797C477.195 287.054 477.036 292.42 473.213 293.452L287.117 343.698C286.387 343.895 285.617 343.882 284.895 343.659L118.229 292.231C115.159 291.283 114.402 287.286 116.914 285.282L135.905 270.129Z" fill="#BD4815"/>
<path d="M268.575 5.35854C270.051 2.09611 273.301 0 276.882 0V0C281.918 0 286 4.08235 286 9.11819V330.609C286 339.859 277.189 346.566 268.272 344.103L53.4575 284.766C39.4423 280.895 39.8876 260.869 54.061 257.625L159.232 233.549C163.496 232.573 167.059 229.66 168.863 225.675L268.575 5.35854Z" fill="black" fill-opacity="0.07"/>
<path d="M222.999 87.5255C223.603 86.001 225.077 85 226.717 85H340.239C341.901 85 343.39 86.0276 343.979 87.5814L362.945 137.581C363.937 140.199 362.004 143 359.205 143H206.889C204.064 143 202.13 140.151 203.171 137.525L222.999 87.5255Z" fill="white"/>
<path d="M179.956 174.41C180.59 172.947 182.032 172 183.626 172H380.562C382.183 172 383.644 172.978 384.261 174.477L409.686 236.238C410.796 238.933 408.744 241.871 405.832 241.758L160.838 232.227C158.028 232.118 156.205 229.22 157.323 226.64L179.956 174.41Z" fill="white"/>
</svg>
