<svg width="46" height="43" viewBox="0 0 46 43" fill="none" xmlns="http://www.w3.org/2000/svg">
<g clip-path="url(#clip0_202_193)">
<path d="M37.375 0H8.625C3.86328 0 0 3.61133 0 8.0625V34.9375C0 39.3887 3.86328 43 8.625 43H37.375C42.1367 43 46 39.3887 46 34.9375V8.0625C46 3.61133 42.1367 0 37.375 0ZM36.207 23.1603H31.9014V38.0514H24.7139V23.1603H21.9219V18.1406H24.7139V14.9428C24.7139 10.7565 26.573 8.26923 31.86 8.26923H37.2091V13.2695H34.0992C32.0466 13.2695 31.9084 13.9802 31.9084 15.3239L31.9014 18.1406H36.7945L36.207 23.1603Z" fill="white"/>
</g>
<defs>
<clipPath id="clip0_202_193">
<rect width="46" height="43" fill="white"/>
</clipPath>
</defs>
</svg>
