<svg width="47" height="44" viewBox="0 0 47 44" fill="none" xmlns="http://www.w3.org/2000/svg">
<path d="M32.7 44H14.3C6.71 44 0.5 38.06 0.5 30.8V13.2C0.5 5.94 6.71 0 14.3 0H32.7C40.29 0 46.5 5.94 46.5 13.2V30.8C46.5 38.06 40.29 44 32.7 44ZM14.3 4.4C9.24 4.4 5.1 8.36 5.1 13.2V30.8C5.1 35.64 9.24 39.6 14.3 39.6H32.7C37.76 39.6 41.9 35.64 41.9 30.8V13.2C41.9 8.36 37.76 4.4 32.7 4.4H14.3Z" fill="white"/>
<path d="M23.5 33.0003C17.06 33.0003 12 28.1603 12 22.0003C12 15.8403 17.06 11.0003 23.5 11.0003C29.94 11.0003 35 15.8403 35 22.0003C35 28.1603 29.94 33.0003 23.5 33.0003ZM23.5 15.4003C19.59 15.4003 16.6 18.2603 16.6 22.0003C16.6 25.7403 19.59 28.6003 23.5 28.6003C27.41 28.6003 30.4 25.7403 30.4 22.0003C30.4 18.2603 27.41 15.4003 23.5 15.4003ZM35 8.80029C33.7297 8.80029 32.7 9.78528 32.7 11.0003C32.7 12.2153 33.7297 13.2003 35 13.2003C36.2702 13.2003 37.3 12.2153 37.3 11.0003C37.3 9.78528 36.2702 8.80029 35 8.80029Z" fill="white"/>
</svg>
