<svg width="50" height="50" viewBox="0 0 50 50" fill="none" xmlns="http://www.w3.org/2000/svg">
<path d="M41 4H9C6.24 4 4 6.24 4 9V41C4 43.76 6.24 46 9 46H41C43.76 46 46 43.76 46 41V9C46 6.24 43.76 4 41 4ZM17 20V39H11V20H17ZM11 14.47C11 13.07 12.2 12 14 12C15.8 12 16.93 13.07 17 14.47C17 15.87 15.88 17 14 17C12.2 17 11 15.87 11 14.47ZM39 39H33C33 39 33 29.74 33 29C33 27 32 25 29.5 24.96H29.42C27 24.96 26 27.02 26 29C26 29.91 26 39 26 39H20V20H26V22.56C26 22.56 27.93 20 31.81 20C35.78 20 39 22.73 39 28.26V39Z" fill="white"/>
</svg>
