<svg width="93" height="123" viewBox="0 0 93 123" fill="none" xmlns="http://www.w3.org/2000/svg">
<path d="M41.7097 3.30982C43.402 -1.10327 49.5979 -1.10327 51.2903 3.30982C52.6155 6.76541 57.0089 7.73982 59.6512 5.16419L60.2952 4.53637C63.5494 1.36438 68.9663 3.9534 68.588 8.5C68.2865 12.1228 71.8404 14.8217 75.213 13.531L76.4133 13.0717C80.5451 11.4904 84.3488 16.0306 82.11 19.8708C80.3036 22.9691 82.461 26.8842 86.0259 26.9757L86.8527 26.9969C91.2805 27.1106 93.0119 32.8417 89.3981 35.4223C86.48 37.5063 86.9477 42.0089 90.2204 43.4627C94.3162 45.2821 93.7572 51.3294 89.3882 52.309L89.0336 52.3884C85.5546 53.1685 84.2249 57.4577 86.6455 60.0949C89.6387 63.357 86.8301 68.5888 82.4827 67.8475L81.3457 67.6535C77.8147 67.0514 74.9055 70.4324 75.9969 73.8695C77.3564 78.1511 72.6693 81.8086 68.8963 79.4104L67.8861 78.7684C64.8062 76.8107 60.7469 78.6979 60.2256 82.33C59.5656 86.9281 53.6261 88.2827 51.0658 84.4194L50.8222 84.052C48.7644 80.9465 44.2356 80.9465 42.1778 84.052L41.9342 84.4194C39.3738 88.2827 33.4343 86.9281 32.7744 82.33C32.2531 78.6979 28.1937 76.8107 25.1139 78.7684L24.1036 79.4104C20.3307 81.8086 15.6436 78.1511 17.0031 73.8695C18.0944 70.4324 15.1853 67.0514 11.6545 67.6535L10.5174 67.8475C6.17007 68.5888 3.36085 63.357 6.3547 60.0949C8.77514 57.4577 7.44578 53.1685 3.96619 52.3884L3.61187 52.309C-0.757185 51.3294 -1.31621 45.2821 2.7794 43.4627C6.05212 42.0089 6.52005 37.5063 3.60183 35.4223C-0.0117316 32.8417 1.71952 27.1106 6.14692 26.9969L6.97414 26.9757C10.539 26.8842 12.6968 22.9691 10.89 19.8708C8.65067 16.0306 12.4546 11.4904 16.5866 13.0717L17.787 13.531C21.1595 14.8217 24.7134 12.1228 24.4119 8.5C24.0336 3.9534 29.4505 1.36438 32.7047 4.53637L33.3488 5.16419C35.9911 7.73982 40.3845 6.76541 41.7097 3.30982Z" fill="black"/>
<path d="M28.4086 92.0057H64.5913V123L47.8568 108.414L28.4086 123V92.0057Z" fill="black"/>
<path d="M46.5 22.7243L51.3741 37.212H67.1471L54.3864 46.1659L59.2605 60.6535L46.5 51.6996L33.7394 60.6535L38.6135 46.1659L25.8529 37.212H41.6259L46.5 22.7243Z" fill="#FFB800"/>
</svg>
