<svg width="160" height="32" viewBox="0 0 160 32" fill="none" xmlns="http://www.w3.org/2000/svg">
<path d="M16.1345 0L19.7569 11.0557H31.4792L21.9956 17.8885L25.618 28.9443L16.1345 22.1115L6.65086 28.9443L10.2733 17.8885L0.789677 11.0557H12.512L16.1345 0Z" fill="#FFB800"/>
<path d="M48.0672 0L51.6142 11.0557H63.0923L53.8063 17.8885L57.3533 28.9443L48.0672 22.1115L38.7812 28.9443L42.3282 17.8885L33.0421 11.0557H44.5203L48.0672 0Z" fill="#FFB800"/>
<path d="M80 0L83.6224 11.0557H95.3448L85.8612 17.8885L89.4836 28.9443L80 22.1115L70.5164 28.9443L74.1388 17.8885L64.6552 11.0557H76.3776L80 0Z" fill="#FFB800"/>
<path d="M111.933 0L115.48 11.0557H126.958L117.672 17.8885L121.219 28.9443L111.933 22.1115L102.647 28.9443L106.194 17.8885L96.9077 11.0557H108.386L111.933 0Z" fill="#FFB800"/>
<path d="M143.866 0L147.488 11.0557H159.21L149.727 17.8885L153.349 28.9443L143.866 22.1115L134.382 28.9443L138.004 17.8885L128.521 11.0557H140.243L143.866 0Z" fill="#FFB800"/>
</svg>
