<svg width="127" height="112" viewBox="0 0 127 112" fill="none" xmlns="http://www.w3.org/2000/svg">
<g clip-path="url(#clip0_201_72)">
<path d="M75.2929 0H14.5143C6.49827 0 0 6.52281 0 14.5691V71.0244C0 79.0707 6.49827 85.5935 14.5143 85.5935H75.2929C83.3089 85.5935 89.8071 79.0707 89.8071 71.0244V14.5691C89.8071 6.52281 83.3089 0 75.2929 0Z" fill="black"/>
<path d="M103.414 21.8536H86.1785C73.1525 21.8536 62.5928 32.4532 62.5928 45.5284V61.9187C62.5928 74.9939 73.1525 85.5935 86.1785 85.5935H103.414C116.44 85.5935 127 74.9939 127 61.9187V45.5284C127 32.4532 116.44 21.8536 103.414 21.8536Z" fill="black"/>
<path d="M26.3072 112C36.3272 112 44.45 104.458 44.45 95.1545C44.45 85.851 36.3272 78.309 26.3072 78.309C16.2871 78.309 8.16431 85.851 8.16431 95.1545C8.16431 104.458 16.2871 112 26.3072 112Z" fill="black"/>
<path d="M103.414 112C113.434 112 121.557 104.458 121.557 95.1545C121.557 85.851 113.434 78.309 103.414 78.309C93.3943 78.309 85.2714 85.851 85.2714 95.1545C85.2714 104.458 93.3943 112 103.414 112Z" fill="black"/>
<path d="M20.043 45.9437L26.4403 40.4993L46.6556 54.5405L42.0326 62.7748L20.043 45.9437Z" fill="#FFB800"/>
<path d="M43.3579 60.9572L33.7112 53.5087L61.3153 18.8229L76.2801 22.6713L43.3579 60.9572Z" fill="#FFB800"/>
<path d="M126.767 40.6855C126.767 49.989 118.847 50.2465 109.078 50.2465C99.3076 50.2465 89.1203 52.5229 92.2954 31.1245C92.2954 21.821 99.3076 23.84 109.078 23.84C118.847 23.84 126.767 31.3819 126.767 40.6855Z" fill="white"/>
<path d="M26.3071 103.805C31.8181 103.805 36.2857 99.932 36.2857 95.1545C36.2857 90.377 31.8181 86.5041 26.3071 86.5041C20.7961 86.5041 16.3286 90.377 16.3286 95.1545C16.3286 99.932 20.7961 103.805 26.3071 103.805Z" fill="white"/>
<path d="M103.414 104.715C108.925 104.715 113.393 100.843 113.393 96.065C113.393 91.2875 108.925 87.4146 103.414 87.4146C97.9033 87.4146 93.4357 91.2875 93.4357 96.065C93.4357 100.843 97.9033 104.715 103.414 104.715Z" fill="white"/>
</g>
<defs>
<clipPath id="clip0_201_72">
<rect width="127" height="112" fill="white"/>
</clipPath>
</defs>
</svg>
