<svg width="62" height="61" viewBox="0 0 62 61" fill="none" xmlns="http://www.w3.org/2000/svg">
<path d="M55.7999 43.0812C55.2833 45.75 53.0874 47.7833 50.3749 48.1646C46.1124 48.8 39.0083 49.5625 30.9999 49.5625C23.1208 49.5625 16.0166 48.8 11.625 48.1646C8.91246 47.7833 6.71663 45.75 6.19996 43.0812C5.68329 40.1583 5.16663 35.8375 5.16663 30.5C5.16663 25.1625 5.68329 20.8417 6.19996 17.9187C6.71663 15.25 8.91246 13.2167 11.625 12.8354C15.8875 12.2 22.9916 11.4375 30.9999 11.4375C39.0083 11.4375 45.9833 12.2 50.3749 12.8354C53.0874 13.2167 55.2833 15.25 55.7999 17.9187C56.3166 20.8417 56.9624 25.1625 56.9624 30.5C56.8333 35.8375 56.3166 40.1583 55.7999 43.0812Z" fill="white"/>
<path d="M25.8333 39.3957V21.604L41.3332 30.4998L25.8333 39.3957Z" fill="#9D0101"/>
</svg>
